<?xml version="1.0" encoding="UTF-8"?>
<svg fill="none" viewBox="0 0 140 160" xmlns="http://www.w3.org/2000/svg">
<g clip-path="url(#a)">
<path d="m22.179 66.921c-1.1293-7.7332 4.4439-14.845 12.229-15.593l65.395-6.3175v29.611h-77.27l-0.3542-7.6998z" fill="#fff"/>
<path d="m99.81 75.315h-77.276c-0.3742 0-0.6816-0.2939-0.695-0.6612l-0.3542-7.6664c-0.5613-3.92 0.4745-7.7933 2.9203-10.912 2.4525-3.1253 5.9808-5.062 9.9435-5.4426l65.395-6.3175c0.1938-0.02 0.3878 0.0468 0.5348 0.1803 0.147 0.1336 0.227 0.3206 0.227 0.5143v29.61c0 0.3807-0.307 0.6946-0.695 0.6946zm-76.608-1.3958h75.913v-28.141l-64.633 6.2374c-3.5751 0.3472-6.7627 2.0902-8.9746 4.915-2.2186 2.8248-3.1475 6.3375-2.6329 9.8836 0.0067 0.02 0.0067 0.0467 0.0067 0.0667l0.3207 7.0387z" fill="#080717"/>
<path d="m126.51 159.33h-119.94c-3.2544 0-5.894-2.638-5.894-5.89v-79.916c0-3.2523 2.6396-5.8901 5.894-5.8901h119.94c3.254 0 5.894 2.6378 5.894 5.8901v79.916c0 3.252-2.64 5.89-5.894 5.89z" fill="#fff"/>
<path d="m126.51 160h-119.94c-3.6152 0-6.5622-2.938-6.5622-6.558v-79.91c0-3.6128 2.9403-6.5578 6.5622-6.5578h119.94c3.615 0 6.562 2.9383 6.562 6.5578v79.917c0 3.613-2.941 6.551-6.562 6.551zm-119.94-91.69c-2.8802 0-5.2257 2.344-5.2257 5.2222v79.917c0 2.878 2.3456 5.222 5.2257 5.222h119.94c2.88 0 5.225-2.344 5.225-5.222v-79.917c0-2.8782-2.345-5.2222-5.225-5.2222h-119.94z" fill="#080717"/>
<path d="m8.1994 76.824c-1.5437 0-2.8-1.2555-2.8-2.7981 0-1.5427 1.2563-2.7981 2.8-2.7981 1.5436 0 2.8 1.2554 2.8 2.7981 0 1.5426-1.2564 2.7981-2.8 2.7981zm0-4.2606c-0.80859 0-1.4635 0.6544-1.4635 1.4625 0 0.808 0.65488 1.4625 1.4635 1.4625 0.80858 0 1.4635-0.6545 1.4635-1.4625 0-0.8081-0.65488-1.4625-1.4635-1.4625z" fill="#080717"/>
<path d="m15.37 76.824c-1.5437 0-2.8-1.2555-2.8-2.7981 0-1.5427 1.2563-2.7981 2.8-2.7981s2.8 1.2554 2.8 2.7981c-0.0067 1.5426-1.2563 2.7981-2.8 2.7981zm0-4.2606c-0.8086 0-1.4635 0.6544-1.4635 1.4625 0 0.808 0.6549 1.4625 1.4635 1.4625s1.4635-0.6545 1.4635-1.4625c-0.0067-0.8081-0.6616-1.4625-1.4635-1.4625z" fill="#080717"/>
<path d="m22.533 76.824c-1.5437 0-2.8-1.2555-2.8-2.7981 0-1.5427 1.2563-2.7981 2.8-2.7981 1.5436 0 2.7999 1.2554 2.7999 2.7981 0 1.5426-1.2563 2.7981-2.7999 2.7981zm0-4.2606c-0.8086 0-1.4635 0.6544-1.4635 1.4625 0 0.808 0.6549 1.4625 1.4635 1.4625s1.4634-0.6545 1.4634-1.4625c0-0.8081-0.6548-1.4625-1.4634-1.4625z" fill="#080717"/>
<path d="m59.28 61.505c5.3594-1.4825 8.5001-7.0186 7.0166-12.374l-2.8668-10.371-19.399 5.3558 2.8668 10.371c1.4835 5.3625 7.0233 8.5012 12.383 7.0186z" fill="#fff"/>
<path d="m56.581 62.54c-1.831 0-3.6419-0.4741-5.2791-1.4024-2.4926-1.4157-4.2902-3.713-5.052-6.471l-2.8668-10.371c-0.1003-0.3539 0.1136-0.7212 0.4678-0.8214l19.399-5.3558c0.1737-0.0467 0.3542-0.0267 0.5078 0.0601 0.1537 0.0868 0.2673 0.2337 0.3141 0.4007l2.8668 10.371c0.7618 2.758 0.4077 5.6563-1.009 8.1472s-3.7155 4.2873-6.4754 5.0486c-0.9489 0.2671-1.9112 0.394-2.8735 0.394zm-11.728-17.951 2.6864 9.7232c0.6683 2.4175 2.2386 4.4276 4.4238 5.6697 2.1852 1.2355 4.7179 1.5493 7.1369 0.8815 2.4191-0.6678 4.4305-2.2371 5.6735-4.4209 1.2363-2.1837 1.5503-4.7147 0.8821-7.1321l-2.6864-9.7233-18.116 5.0019z" fill="#080717"/>
<path d="m47.766 57.638-3.7355-13.516 12.322-3.4058 5.2124 3.5327c-1.6305 6.0303-6.4553 10.899-13.799 13.39z" fill="#080717"/>
<path d="m47.078 45.311c-11.38 0-20.609-9.2224-20.609-20.595v-1.0952c0-11.373 9.2285-20.595 20.609-20.595s20.609 9.2224 20.609 20.595v1.0952c0 11.373-9.2286 20.595-20.609 20.595z" fill="#080717"/>
<path d="m52.124 39.08c-9.5025 0-17.201-7.6932-17.201-17.189v-3.5126c0-9.4963 7.6983-17.196 17.201-17.196s17.201 7.6931 17.201 17.189v3.5126c0 9.4963-7.7049 17.196-17.201 17.196z" fill="#080717"/>
<path d="m70.861 16.575c-0.3074 0-0.588-0.2137-0.6549-0.5276-1.0491-4.9551-3.4348-8.6548-7.07-10.999-3.8425-2.4709-9.1217-3.2856-14.107-2.1837-0.3609 0.08014-0.7151-0.14692-0.7952-0.50753-0.0802-0.36062 0.147-0.71456 0.5078-0.7947 5.326-1.182 10.979-0.29383 15.116 2.364 3.9493 2.5377 6.5288 6.5245 7.6581 11.847 0.0735 0.3606-0.1537 0.7146-0.5145 0.7947-0.0468 0.0067-0.0936 0.0067-0.1404 0.0067z" fill="#080717"/>
<path d="m34.234 35.474-3.8826-0.0735c-2.3722-0.0467-4.2567-1.9967-4.2099-4.3674 0.0467-2.3707 1.998-4.254 4.3703-4.2072l3.8826 0.0734c2.3723 0.0468 4.2567 1.9968 4.2099 4.3675-0.0467 2.364-1.998 4.2539-4.3703 4.2072z" fill="#fff"/>
<path d="m34.315 36.142h-0.0936l-3.8825-0.0734c-2.7332-0.0534-4.9183-2.3173-4.8716-5.0486 0.0535-2.7314 2.3256-4.8951 5.052-4.8684l3.8826 0.0735c1.3231 0.0267 2.5594 0.561 3.4815 1.5159 0.9222 0.955 1.4101 2.2105 1.39 3.5327-0.0267 1.3223-0.5613 2.5577-1.5169 3.4793-0.9356 0.9015-2.1518 1.389-3.4415 1.389zm-3.8892-8.6481c-1.9647 0-3.5885 1.5827-3.622 3.5528-0.0334 1.9967 1.5571 3.6529 3.5551 3.6863l3.8826 0.0734c0.9623 0.0401 1.8844-0.3406 2.5794-1.015 0.695-0.6745 1.0893-1.5761 1.1093-2.5444 0.0201-0.9683-0.3408-1.8832-1.0157-2.5777s-1.5771-1.0885-2.5461-1.1086l-3.8825-0.0734c-0.0134 0.0066-0.0334 0.0066-0.0601 0.0066z" fill="#080717"/>
<path d="m50.313 9.3827h0.9824c6.502 0 12.162 3.5728 15.142 8.8551l1.116-0.3339c2.2721-0.6745 4.6644 0.6211 5.3393 2.8916 0.675 2.2706-0.6214 4.6613-2.8935 5.3358l-1.3365 0.4007c0 0.0734 0.0067 0.1469 0.0067 0.2204v6.6513c0 9.5897-7.7785 17.363-17.374 17.363h-0.9824c-9.596 0-17.374-7.7733-17.374-17.363v-6.6513c0-9.5964 7.7785-17.37 17.374-17.37z" fill="#fff"/>
<path d="m51.295 51.428h-0.9756c-9.9503 0-18.043-8.0871-18.043-18.031v-6.6514c0-9.9436 8.0925-18.031 18.043-18.031h0.9756c6.3217 0 12.196 3.3324 15.457 8.7283l0.6148-0.1803c1.2697-0.3807 2.6129-0.2404 3.7757 0.394 1.1627 0.6277 2.0114 1.6762 2.3923 2.945 0.3809 1.2689 0.2406 2.6111-0.3943 3.7731-0.6281 1.162-1.6773 2.0101-2.947 2.3908l-0.8553 0.2537v6.3709c0 9.9504-8.0992 18.038-18.043 18.038zm-0.9823-41.377c-9.2152 0-16.706 7.4861-16.706 16.695v6.6514c0 9.2024 7.4911 16.695 16.706 16.695h0.9756c9.2085 0 16.706-7.4861 16.706-16.695l-0.0067-6.8584c-0.0067-0.3005 0.1938-0.5609 0.4745-0.6477l1.3365-0.4007c0.9288-0.2738 1.6906-0.8949 2.1517-1.7497 0.4611-0.8481 0.5614-1.8298 0.2874-2.758-0.274-0.9283-0.8955-1.6896-1.7508-2.1504-0.8487-0.4608-1.831-0.5609-2.7599-0.2871l-1.116 0.3339c-0.3007 0.0868-0.6215-0.0401-0.7752-0.3139-2.9603-5.249-8.5402-8.5145-14.561-8.5145h-0.9623z" fill="#080717"/>
<path d="m32.056 26.679v0.0334c3.074-2.0769 5.346-9.3226 5.346-17.937v-0.02671c-3.0739 2.0702-5.346 9.3159-5.346 17.931z" fill="#080717"/>
<path d="m68.275 24.261c-0.3208 0-0.6014-0.2338-0.6616-0.561-0.4811-2.8649 1.8511-4.3007 1.9513-4.3608 0.3141-0.187 0.7284-0.0868 0.9155 0.2271s0.0869 0.7212-0.2272 0.9149c-0.0735 0.0467-1.6505 1.0418-1.3231 2.9984 0.0601 0.3607-0.1871 0.7079-0.548 0.768-0.0334 0.0134-0.0735 0.0134-0.1069 0.0134z" fill="#080717"/>
<path d="m32.35 33.096c-0.3342 0-0.6282-0.2538-0.6616-0.5944-0.2072-1.97-1.9981-2.5109-2.0783-2.531-0.3541-0.1001-0.5613-0.4674-0.4611-0.8214 0.1003-0.3539 0.4611-0.5609 0.822-0.4608 0.1136 0.0334 2.7398 0.7881 3.0472 3.6797 0.0401 0.3673-0.2272 0.6945-0.5947 0.7345-0.0268-0.0066-0.0535-0.0066-0.0735-0.0066z" fill="#080717"/>
<path d="m45.428 23.013c0.254 0.6678-1.0358 1.783-2.8801 2.4909-1.8444 0.7079-3.5551 0.7479-3.8091 0.0801-0.2539-0.6678 1.0358-1.783 2.8802-2.4909 1.8511-0.7079 3.5551-0.7479 3.809-0.0801z" fill="#080717"/>
<path d="m58.706 22.058c-0.0468 0.7146-1.6907 1.1821-3.662 1.0418-1.9781-0.1335-3.5351-0.8214-3.4883-1.5359 0.0468-0.7146 1.6907-1.1821 3.662-1.0418 1.9713 0.1335 3.5351 0.8214 3.4883 1.5359z" fill="#080717"/>
<path d="m50.747 34.178c-0.02 0-0.0468 0-0.0668-0.0067-0.842-0.0868-1.6172-0.5275-2.1184-1.2087-0.5012-0.6811-0.6883-1.5493-0.5212-2.3774l0.9489-4.5811c0.0735-0.3607 0.4277-0.5944 0.7885-0.5209 0.3609 0.0734 0.5948 0.4274 0.5213 0.788l-0.9489 4.5811c-0.1003 0.4675 0.0067 0.935 0.2873 1.3223 0.2807 0.3873 0.7017 0.6211 1.1761 0.6745 0.3676 0.0401 0.6349 0.3673 0.5948 0.7346-0.0334 0.3406-0.3275 0.5943-0.6616 0.5943z" fill="#080717"/>
<path d="m53.48 42.472c-0.5079 0-1.0358-0.1069-1.5771-0.3206-0.3408-0.1335-0.5146-0.5208-0.3809-0.8614 0.1336-0.3473 0.5212-0.5142 0.8687-0.3807 0.7952 0.3072 1.4702 0.3005 2.085-0.02 1.5035-0.7947 2.0849-3.2188 2.0916-3.2456 0.0802-0.3606 0.441-0.581 0.8019-0.5008 0.3608 0.0801 0.5814 0.4407 0.5012 0.8014-0.0268 0.1268-0.7151 3.0385-2.7666 4.1203-0.5212 0.2738-1.0558 0.4074-1.6238 0.4074z" fill="#080717"/>
<path d="m56.567 5.7364c3.5083 1.1753 6.5622 2.7313 8.8209 4.3675-0.0802 0.6411-0.2205 1.2755-0.4277 1.8966-0.9957 2.965-3.3346 5.1888-6.3751 6.4376-1.831-0.3005-3.789-0.788-5.7937-1.4558-8.0926-2.718-13.806-7.4394-12.757-10.538 1.0425-3.1053 8.4467-3.4192 16.533-0.70787z" fill="#080717"/>
<path d="m31.468 15.193c-2.1852 2.9784-2.7666 6.2707-2.0916 8.9753 0.6215 0.1669 1.263 0.2738 1.9245 0.3139 3.1275 0.1869 6.0611-1.1487 8.3599-3.4994-0.822-2.0101 0.3742-5.9902 3.1608-8.9753 5.8205-6.2306-4.7847-5.7698-11.354 3.1855z" fill="#080717"/>
<path d="m55.545 27.246c0.0535 1.2088-0.5279 2.2172-1.2964 2.2505-0.7685 0.0334-1.4367-0.9215-1.4902-2.1236-0.0534-1.2087 0.5279-2.2171 1.2964-2.2505s1.4368 0.9149 1.4902 2.1236z" fill="#080717"/>
<path d="m44.245 29.964c0.0535 1.2088-0.5279 2.2172-1.2964 2.2506-0.7684 0.0333-1.4367-0.9216-1.4902-2.1237-0.0534-1.2087 0.528-2.2171 1.2965-2.2505 0.7751-0.0401 1.4367 0.9149 1.4901 2.1236z" fill="#080717"/>
<path d="m43.156 5.6963c-0.3475 0-0.6415-0.2738-0.6682-0.62774-0.2005-3.2389 3.368-4.9418 3.5217-5.0086 0.3341-0.1536 0.735-0.013356 0.8887 0.32723 0.1537 0.3339 0.0134 0.73459-0.3274 0.88819-0.0267 0.01335-2.9002 1.389-2.7532 3.713 0.0201 0.36729-0.2539 0.68784-0.6282 0.70787h-0.0334z" fill="#080717"/>
<path d="m42.922 4.3073c-0.3207 0-0.6081-0.23373-0.6615-0.56096-0.1738-1.0418-0.9289-1.1486-1.0826-1.1553-0.3608-0.02671-0.6482-0.33391-0.6281-0.7012 0.02-0.36729 0.3274-0.64777 0.6882-0.63442 0.6883 0.02671 2.0583 0.53425 2.3456 2.2772 0.0602 0.36729-0.1871 0.70787-0.5546 0.76798-0.0335 0.00667-0.0669 0.00667-0.107 0.00667z" fill="#080717"/>
<path d="m53.868 19.386c-0.0468 0-0.1002-0.0067-0.147-0.0134-5.1121-1.142-8.9813-3.6128-11.501-7.3592-0.2072-0.3072-0.127-0.7213 0.1804-0.9283s0.7217-0.1269 0.9289 0.1803c2.3188 3.4459 5.914 5.7365 10.679 6.7983 0.3609 0.0801 0.5881 0.4341 0.5079 0.7947-0.0668 0.3205-0.3475 0.5276-0.6482 0.5276z" fill="#080717"/>
<path d="m66.444 13.67 0.4678 11.566-1.8778 0.5076-4.6911-13.336 6.1011 1.2622z" fill="#080717"/>
<path d="m125.66 80.504c-1.631 0-3.262-0.2871-4.839-0.8748l-55.438-20.502c-3.0205-1.1152-5.3193-3.5193-6.3016-6.5913-1.1962-3.753-0.1938-7.7999 2.6128-10.565l4.7847-4.708-1.6105-5.476c-0.3675-1.2488-0.2606-2.5844 0.3007-3.7598 0.274-0.5676 0.8287-0.9149 1.4568-0.9149h0.0134c0.6348 0.0067 1.1895 0.3606 1.4568 0.9349l3.7489 8.0939c0.0467 0.1068 0.0668 0.2203 0.0601 0.3339l-0.548 6.865 51.482 15.393c0.355 0.1068 0.555 0.4808 0.448 0.8281-0.107 0.3539-0.481 0.5543-0.828 0.4474l-51.997-15.546c-0.3007-0.0935-0.5012-0.3807-0.4745-0.6946l0.5814-7.2256-3.6754-7.9336c-0.0668-0.1402-0.2004-0.1536-0.2539-0.1603-0.0668 0-0.1871 0.0201-0.2539 0.1603-0.421 0.8748-0.5012 1.8699-0.2272 2.8048l1.724 5.8567c0.0669 0.2337 0 0.4941-0.1737 0.6678l-5.072 4.9885c-2.4525 2.4108-3.3212 5.9368-2.2788 9.2091 0.8554 2.6779 2.8535 4.7681 5.4931 5.7431l55.438 20.508c3.174 1.1753 6.609 1.0351 9.676-0.394 3.068-1.4291 5.387-3.9668 6.529-7.1523 2.212-6.1638-0.608-12.889-6.555-15.64l-39.16-18.111c-4.7646-2.2038-10.017-2.8649-15.183-1.91l-3.5885 0.7213c-0.3608 0.0734-0.715-0.1603-0.7885-0.5209s0.1604-0.7146 0.5212-0.788l3.6019-0.7213c5.4462-1.0084 10.979-0.3072 15.998 2.0101l39.16 18.111c6.582 3.0452 9.696 10.478 7.257 17.303-1.263 3.5193-3.829 6.3308-7.217 7.9135-1.884 0.8548-3.876 1.2955-5.88 1.2955z" fill="#080717"/>
<path d="m61.706 41.965 4.7847-4.708-1.6105-5.476c-0.3675-1.2488-0.2606-2.5845 0.3007-3.7598 0.274-0.5676 0.8287-0.9149 1.4568-0.9149h0.0134c0.6348 0.0067 1.1895 0.3606 1.4568 0.9349l3.2009 6.9052 5.052-1.0952c5.4395-1.0084 10.966-0.3072 15.984 2.0101l39.159 18.111c6.582 3.0452 9.696 10.478 7.257 17.303-1.263 3.5193-3.822 6.3308-7.217 7.9135-1.871 0.8682-3.869 1.3089-5.867 1.3089-1.631 0-3.261-0.2871-4.838-0.8748l-55.452-20.495c-3.0272-1.1153-5.3193-3.5194-6.3016-6.5913-1.1962-3.7531-0.1938-7.8067 2.6195-10.571z" fill="#fff"/>
<path d="m67.687 30.946c0-0.9816 0.8955-3.0185 1.664-3.6262 0.4143-0.3272 1.0291-0.1402 1.1895 0.3606l2.1785 6.6648-1.7776 6.0703-0.9623 2.1437-2.2921-11.613z" fill="#fff"/>
<path d="m70.948 41.09c-0.0601 0-0.1269-0.0067-0.1871-0.0267-0.3541-0.1069-0.5546-0.4741-0.4544-0.8281l1.7174-5.87-2.1183-6.4711c-0.0067-0.0267-0.0268-0.0467-0.0602-0.0601-0.0334-0.0066-0.0601-0.0066-0.0802 0.0134-0.6148 0.4808-0.9622 1.2087-0.9622 1.9834 0 0.3673-0.3008 0.6678-0.6683 0.6678s-0.6682-0.3005-0.6682-0.6678c0-1.1954 0.5412-2.2973 1.4768-3.0319 0.3675-0.2871 0.8487-0.3806 1.2964-0.2404 0.4477 0.1336 0.7952 0.4808 0.9422 0.9216l2.1785 6.6714c0.0401 0.1269 0.0468 0.2671 0.0067 0.394l-1.7775 6.0704c-0.0869 0.2804-0.3542 0.4674-0.6416 0.4741z" fill="#080717"/>
<path d="m125.66 80.504c-1.631 0-3.262-0.2871-4.839-0.8748l-55.438-20.502c-3.0205-1.1152-5.3193-3.5193-6.3016-6.5913-1.1962-3.753-0.1938-7.7999 2.6128-10.565l4.7847-4.708-1.6105-5.476c-0.3675-1.2488-0.2606-2.5844 0.3007-3.7598 0.274-0.5676 0.8287-0.9149 1.4568-0.9149h0.0134c0.6348 0.0067 1.1895 0.3606 1.4568 0.9349l3.7489 8.0939c0.0467 0.1068 0.0668 0.2203 0.0601 0.3339l-0.548 6.865 51.482 15.393c0.355 0.1068 0.555 0.4808 0.448 0.8281-0.107 0.3539-0.481 0.5543-0.828 0.4474l-51.997-15.546c-0.3007-0.0935-0.5012-0.3807-0.4745-0.6946l0.5814-7.2256-3.6754-7.9336c-0.0668-0.1402-0.2004-0.1536-0.2539-0.1603-0.0668 0-0.1871 0.0201-0.2539 0.1603-0.421 0.8748-0.5012 1.8699-0.2272 2.8048l1.724 5.8567c0.0669 0.2337 0 0.4941-0.1737 0.6678l-5.072 4.9885c-2.4525 2.4108-3.3212 5.9368-2.2788 9.2091 0.8554 2.6779 2.8535 4.7681 5.4931 5.7431l55.438 20.508c3.174 1.1753 6.609 1.0351 9.676-0.394 3.068-1.4291 5.387-3.9668 6.529-7.1523 2.212-6.1638-0.608-12.889-6.555-15.64l-39.16-18.111c-4.7646-2.2038-10.017-2.8649-15.183-1.91l-3.5885 0.7213c-0.3608 0.0734-0.715-0.1603-0.7885-0.5209s0.1604-0.7146 0.5212-0.788l3.6019-0.7213c5.4462-1.0084 10.979-0.3072 15.998 2.0101l39.16 18.111c6.582 3.0452 9.696 10.478 7.257 17.303-1.263 3.5193-3.829 6.3308-7.217 7.9135-1.884 0.8548-3.876 1.2955-5.88 1.2955z" fill="#080717"/>
<path d="m95.54 51.748c-0.1003 0-0.2072-0.0201-0.3007-0.0735-0.3275-0.1669-0.4611-0.5676-0.2941-0.8948l5.2589-10.364c0.167-0.3272 0.568-0.4608 0.896-0.2939 0.327 0.167 0.461 0.5677 0.294 0.8949l-5.2594 10.364c-0.1136 0.2337-0.3542 0.3673-0.5947 0.3673z" fill="#080717"/>
<path d="m57.844 71.809-0.7017-5.7097c-0.127-1.2088-1.2162-2.0836-2.4257-1.95-1.2096 0.1268-2.085 1.2154-1.9513 2.4241l0.7016 5.7098c0.127 1.2087 1.2162 2.0835 2.4258 1.95 1.2028-0.1336 2.0782-1.2221 1.9513-2.4242z" fill="#fff"/>
<path d="m55.652 74.934c-1.4568 0-2.7198-1.1018-2.8802-2.5844l-0.7016-5.703c-0.0869-0.7814 0.1403-1.536 0.6214-2.137 0.4879-0.6011 1.1762-0.9817 1.9446-1.0618 0.7685-0.0802 1.5237 0.1402 2.1251 0.621 0.6014 0.4875 0.9823 1.1754 1.0625 1.9433l0.7017 5.7031v0.0134c0.1737 1.5893-0.9824 3.0185-2.5728 3.1854-0.0936 0.0134-0.2005 0.02-0.3007 0.02zm-0.7017-10.111c-0.0534 0-0.1069 0-0.167 0.0067-0.822 0.0868-1.4234 0.8281-1.3365 1.6562l0.7016 5.7031c0.0869 0.8347 0.8353 1.4291 1.6573 1.3422 0.8219-0.0868 1.4234-0.828 1.3365-1.6494l-0.7017-5.7031c-0.0468-0.4074-0.2405-0.768-0.5546-1.0218-0.2606-0.2137-0.5881-0.3339-0.9356-0.3339z" fill="#080717"/>
<path d="m54.135 73.432-0.862-8.0337c-0.127-1.1553-1.1628-1.9968-2.3255-1.8699l-0.1804 0.02c-1.1561 0.1269-1.9981 1.162-1.8712 2.324l0.8621 8.0337c0.127 1.1553 1.1627 1.9968 2.3255 1.8699l0.1804-0.02c1.1561-0.1269 1.9981-1.1687 1.8711-2.324z" fill="#fff"/>
<path d="m51.856 76.484c-0.6415 0-1.2497-0.2137-1.7575-0.621-0.5814-0.4675-0.9489-1.142-1.0291-1.8832l-0.8621-8.0338c-0.0802-0.7479 0.1337-1.4758 0.6081-2.0635 0.4678-0.581 1.1427-0.9483 1.8845-1.0284l0.1804-0.02c0.7485-0.0802 1.4769 0.1335 2.0582 0.6077 0.5814 0.4674 0.949 1.1419 1.0292 1.8832l0.862 8.0337c0.0802 0.748-0.1337 1.4759-0.6081 2.0635-0.4678 0.581-1.1427 0.9483-1.8845 1.0285l-0.1804 0.02c-0.1002 0.0067-0.2005 0.0133-0.3007 0.0133zm-0.6816-12.274c-0.0535 0-0.1003 0-0.1537 0.0067l-0.1805 0.0201c-0.3742 0.04-0.715 0.227-0.9489 0.5208-0.2339 0.2939-0.3475 0.6612-0.3074 1.0351l0.8621 8.0338c0.0401 0.3739 0.2272 0.7145 0.5212 0.9483 0.294 0.2337 0.6616 0.3472 1.0358 0.3072l0.1804-0.0201c0.3742-0.04 0.7151-0.227 0.9489-0.5209 0.2339-0.2938 0.3475-0.6611 0.3074-1.0351l-0.862-8.0337c-0.0401-0.374-0.2272-0.7146-0.5212-0.9483-0.254-0.207-0.5614-0.3139-0.8821-0.3139z" fill="#080717"/>
<path d="m50.252 73.238-0.8688-8.0337c-0.1269-1.1553-1.1627-1.9968-2.3255-1.8699l-0.1804 0.02c-1.1561 0.1269-1.9981 1.162-1.8711 2.324l0.862 8.0337c0.127 1.1553 1.1628 1.9968 2.3255 1.8699l0.1805-0.02c1.1627-0.1202 1.998-1.162 1.8778-2.324z" fill="#fff"/>
<path d="m47.967 76.29c-0.6415 0-1.2496-0.2137-1.7575-0.6211-0.5814-0.4674-0.9489-1.1419-1.0291-1.8832l-0.862-8.0337c-0.0802-0.748 0.1336-1.4759 0.6081-2.0635 0.4678-0.581 1.1427-0.9483 1.8844-1.0285l0.1805-0.02c0.7484-0.0734 1.4768 0.1336 2.0582 0.6077 0.5814 0.4675 0.9489 1.142 1.0291 1.8832l0.862 8.0338c0.0802 0.7479-0.1336 1.4758-0.6081 2.0635-0.4744 0.5877-1.1427 0.9483-1.8844 1.0284l-0.1805 0.02c-0.0935 0.0067-0.2004 0.0134-0.3007 0.0134zm-0.6816-12.274c-0.0535 0-0.1002 0-0.1537 0.0067l-0.1804 0.02c-0.3742 0.0401-0.7151 0.2271-0.9489 0.5209-0.2339 0.2938-0.3475 0.6611-0.3074 1.0351l0.862 8.0337c0.0401 0.374 0.2272 0.7146 0.5212 0.9483 0.2941 0.2337 0.6616 0.3473 1.0358 0.3072l0.1805-0.02c0.3742-0.0401 0.715-0.2271 0.9489-0.5209 0.2339-0.2939 0.3475-0.6612 0.3074-1.0351l-0.8621-8.0337c-0.0401-0.374-0.2272-0.7146-0.5212-0.9483-0.2473-0.2071-0.5547-0.3139-0.8821-0.3139z" fill="#080717"/>
<path d="m46.136 72.771-0.842-7.8601c-0.1269-1.2088-1.2162-2.0836-2.4257-1.95-1.2095 0.1268-5.9408 3.5994-5.8138 4.8082l4.1432 0.2471 0.5613 5.2222c0.127 1.2087 1.2162 2.0836 2.4257 1.95 1.2096-0.1269 2.085-1.2087 1.9513-2.4174z" fill="#fff"/>
<path d="m43.944 75.903c-0.6615 0-1.2897-0.2204-1.8109-0.6411-0.6015-0.4875-0.9824-1.1753-1.0625-1.9433l-0.5012-4.6413-3.5551-0.2137c-0.3408-0.02-0.6148-0.2804-0.6482-0.621-0.2005-1.8499 5.1923-5.436 6.4285-5.5695 1.5905-0.167 3.0205 0.9816 3.1876 2.571l0.8487 7.8601c0.0802 0.768-0.1404 1.5226-0.6282 2.1236-0.4878 0.6011-1.1761 0.9817-1.9446 1.0619-0.1069 0.0066-0.2071 0.0133-0.3141 0.0133zm-5.8138-8.7683 3.1074 0.187c0.3408 0.02 0.6148 0.2805 0.6482 0.621l0.5613 5.2223c0.0869 0.8214 0.8287 1.4224 1.6573 1.3356 0.401-0.0401 0.7551-0.2404 1.0091-0.5543 0.2539-0.3138 0.3675-0.7078 0.3274-1.1018l-0.8487-7.8601c-0.0868-0.8214-0.8286-1.4225-1.6572-1.3357-0.969 0.1069-3.769 2.2973-4.8048 3.486z" fill="#080717"/>
<path d="m109.77 98.254h-70.914c-0.3676 0-0.6683-0.3005-0.6683-0.6678s0.3007-0.6678 0.6683-0.6678h70.921c0.368 0 0.668 0.3005 0.668 0.6678-6e-3 0.374-0.3 0.6678-0.675 0.6678z" fill="#080717"/>
<path d="m108.38 114.92h-58.412c-0.3675 0-0.6682-0.3-0.6682-0.668 0-0.367 0.3007-0.667 0.6682-0.667h58.418c0.368 0 0.668 0.3 0.668 0.667-6e-3 0.368-0.3 0.668-0.674 0.668z" fill="#080717"/>
<path d="m100.05 120.47h-50.078c-0.3675 0-0.6682-0.3-0.6682-0.667 0-0.368 0.3007-0.668 0.6682-0.668h50.078c0.368 0 0.669 0.3 0.669 0.668 0 0.367-0.301 0.667-0.669 0.667z" fill="#080717"/>
<path d="m108.38 127.41h-58.412c-0.3675 0-0.6682-0.301-0.6682-0.668s0.3007-0.668 0.6682-0.668h58.418c0.368 0 0.668 0.301 0.668 0.668-6e-3 0.367-0.3 0.668-0.674 0.668z" fill="#080717"/>
<path d="m100.05 132.97h-50.078c-0.3675 0-0.6682-0.3-0.6682-0.668 0-0.367 0.3007-0.668 0.6682-0.668h50.078c0.368 0 0.669 0.301 0.669 0.668 0 0.368-0.301 0.668-0.669 0.668z" fill="#080717"/>
<path d="m108.38 139.91h-58.412c-0.3675 0-0.6682-0.301-0.6682-0.668 0-0.368 0.3007-0.668 0.6682-0.668h58.418c0.368 0 0.668 0.3 0.668 0.668-6e-3 0.374-0.3 0.668-0.674 0.668z" fill="#080717"/>
<path d="m100.05 145.46h-50.078c-0.3675 0-0.6682-0.301-0.6682-0.668s0.3007-0.668 0.6682-0.668h50.078c0.368 0 0.669 0.301 0.669 0.668s-0.301 0.668-0.669 0.668z" fill="#080717"/>
<path d="m104.22 103.81h-65.361c-0.3676 0-0.6683-0.301-0.6683-0.668 0-0.368 0.3007-0.668 0.6683-0.668h65.361c0.368 0 0.669 0.3 0.669 0.668 0 0.367-0.301 0.668-0.669 0.668z" fill="#080717"/>
<path d="m45.802 120.47h-5.5598c-0.3676 0-0.6683-0.3-0.6683-0.667v-5.557c0-0.367 0.3007-0.667 0.6683-0.667h5.5598c0.3676 0 0.6683 0.3 0.6683 0.667v5.557c0 0.367-0.3007 0.667-0.6683 0.667zm-4.8916-1.335h4.2234v-4.221h-4.2234v4.221z" fill="#080717"/>
<path d="m45.802 132.97h-5.5598c-0.3676 0-0.6683-0.3-0.6683-0.668v-5.556c0-0.367 0.3007-0.668 0.6683-0.668h5.5598c0.3676 0 0.6683 0.301 0.6683 0.668v5.556c0 0.368-0.3007 0.668-0.6683 0.668zm-4.8916-1.336h4.2234v-4.22h-4.2234v4.22z" fill="#080717"/>
<path d="m45.802 145.46h-5.5598c-0.3676 0-0.6683-0.301-0.6683-0.668v-5.556c0-0.368 0.3007-0.668 0.6683-0.668h5.5598c0.3676 0 0.6683 0.3 0.6683 0.668v5.556c0 0.367-0.3007 0.668-0.6683 0.668zm-4.8916-1.336h4.2234v-4.22h-4.2234v4.22z" fill="#080717"/>
<path d="m34.535 90.181h-18.524v18.511h18.524v-18.511z" fill="#9E9E9E"/>
<path d="m23.295 103.28c-0.1804 0-0.3475-0.073-0.4744-0.193l-3.0272-3.026c-0.2606-0.26-0.2606-0.6807 0-0.9411 0.2606-0.2605 0.6816-0.2605 0.9422 0l2.5594 2.5581 6.7961-6.792c0.2606-0.2605 0.6816-0.2605 0.9423 0 0.2606 0.2604 0.2606 0.6811 0 0.9416l-7.2706 7.2654c-0.1203 0.121-0.294 0.187-0.4678 0.187z" fill="#080717"/>
</g>
<defs>
<clipPath id="a">
<rect width="139.58" height="160" fill="#fff"/>
</clipPath>
</defs>
</svg>
